<?xml version="1.0" standalone="no"?>
<!DOCTYPE svg PUBLIC "-//W3C//DTD SVG 20010904//EN"
 "http://www.w3.org/TR/2001/REC-SVG-20010904/DTD/svg10.dtd">
<svg version="1.0" xmlns="http://www.w3.org/2000/svg"
 width="640.000000pt" height="640.000000pt" viewBox="0 0 640.000000 640.000000"
 preserveAspectRatio="xMidYMid meet">

<g transform="translate(0.000000,640.000000) scale(0.100000,-0.100000)"
fill="#000000" stroke="none">
<path d="M0 3200 l0 -3200 3200 0 3200 0 0 3200 0 3200 -3200 0 -3200 0 0
-3200z m3262 2872 c18 -15 35 -30 36 -35 2 -4 11 -15 20 -24 42 -41 59 -144
27 -157 -9 -3 -15 -18 -15 -35 0 -26 7 -34 40 -51 43 -22 54 -50 18 -50 -25 0
-128 -47 -128 -59 0 -15 -144 0 -162 17 -10 8 -18 12 -18 7 0 -4 -8 2 -17 14
-12 14 -34 23 -68 27 -82 9 -97 13 -88 27 4 7 8 14 9 17 0 3 4 23 8 45 16 88
17 90 27 74 8 -10 9 -8 4 9 -4 13 -1 29 6 38 7 8 14 27 15 42 3 28 50 76 99
103 17 9 57 16 92 17 54 1 67 -2 95 -26z m488 -235 c32 -26 45 -70 45 -153 0
-75 -11 -118 -22 -87 -8 24 -33 -14 -29 -44 2 -15 1 -20 -1 -11 -2 9 -11 18
-20 20 -9 2 -17 15 -19 32 -2 16 -10 33 -18 38 -12 7 -14 19 -10 51 4 23 10
47 14 52 4 6 8 29 7 51 0 62 18 79 53 51z m84 -32 c6 -28 5 -29 -9 -11 -8 11
-15 29 -15 40 0 28 16 8 24 -29z m-874 -154 c0 -5 10 -7 22 -3 14 3 19 2 14
-6 -4 -7 -26 -11 -49 -11 -23 1 -34 3 -24 6 9 2 17 9 17 14 0 5 5 9 10 9 6 0
10 -4 10 -9z m720 -48 c0 -20 -3 -24 -11 -16 -7 7 -9 19 -6 27 10 24 17 19 17
-11z m-483 -163 c-1 -111 -2 -120 -19 -114 -10 3 -18 1 -18 -5 0 -20 -32 -11
-56 14 -16 18 -33 25 -60 25 -32 0 -35 2 -23 16 10 13 24 15 62 11 44 -6 49
-4 57 17 5 13 14 27 19 31 7 3 9 21 5 43 -6 39 10 97 25 88 4 -3 8 -60 8 -126z
m-185 85 c-35 -15 -71 -14 -112 3 -20 9 -9 11 60 11 82 0 84 0 52 -14z m404 0
c-4 -10 1 -15 14 -15 11 0 20 -5 20 -11 0 -15 -101 -6 -127 11 -15 9 -11 10
23 8 30 -2 40 0 37 9 -3 8 3 13 17 13 16 0 20 -4 16 -15z m-296 -15 c0 -5 -10
-10 -22 -11 -22 0 -22 -1 -3 -9 19 -8 19 -9 -2 -9 -28 -1 -41 -21 -14 -21 11
0 22 -4 26 -9 7 -12 -32 -34 -44 -26 -17 10 -65 -16 -121 -64 -30 -26 -62 -50
-70 -53 -17 -6 -50 37 -50 65 0 9 -5 26 -12 36 -9 15 -7 23 8 43 17 23 26 26
89 26 39 0 98 9 135 20 80 24 80 24 80 12z m717 -72 c-3 -7 -5 -2 -5 12 0 14
2 19 5 13 2 -7 2 -19 0 -25z m-424 2 c31 -11 66 -20 77 -20 13 0 22 -9 26 -26
7 -29 -12 -74 -33 -74 -7 0 -16 -6 -19 -13 -2 -7 -20 -12 -42 -11 -31 1 -36 4
-34 20 2 10 8 22 14 25 5 3 -8 21 -29 38 l-38 32 35 -6 c19 -3 43 -8 53 -11 9
-3 17 -1 17 5 0 6 -8 11 -19 11 -10 0 -24 7 -31 15 -7 8 -18 15 -26 15 -7 0
-16 5 -19 10 -9 14 3 13 68 -10z m-123 -90 c0 -5 -12 -10 -26 -10 -14 0 -23 4
-19 10 3 6 15 10 26 10 10 0 19 -4 19 -10z m-270 -51 c0 -5 -7 -6 -15 -3 -8 4
-15 1 -15 -5 0 -6 11 -13 25 -17 14 -3 25 -12 25 -19 0 -12 -57 -45 -78 -45
-6 0 -12 -8 -14 -18 -2 -13 -9 -17 -25 -13 -21 6 -22 7 -7 38 9 17 29 46 45
64 16 18 29 37 29 42 0 5 7 4 15 -3 8 -7 15 -16 15 -21z m770 -69 c0 -5 -4
-10 -10 -10 -5 0 -10 5 -10 10 0 6 5 10 10 10 6 0 10 -4 10 -10z m-566 -29 c8
-12 -29 -21 -89 -21 -46 1 -48 2 -31 15 21 16 111 21 120 6z m-154 -21 c0 -5
-7 -10 -15 -10 -8 0 -15 -4 -15 -9 0 -5 -10 -7 -21 -4 -20 6 -20 7 7 19 37 16
44 16 44 4z m-77 -74 c4 -10 0 -12 -14 -9 -22 6 -26 23 -5 23 8 0 16 -6 19
-14z m205 3 c65 1 83 -12 32 -22 -16 -4 -30 -13 -30 -20 0 -11 -12 -14 -47
-12 -27 2 -48 4 -48 5 0 1 -12 4 -27 6 -22 4 -28 1 -29 -13 -1 -16 -2 -15 -6
2 -3 10 -12 30 -21 43 l-16 24 65 -7 c35 -3 92 -6 127 -6z m-108 -74 c0 -9 -6
-12 -15 -9 -8 4 -12 10 -9 15 8 14 24 10 24 -6z m40 -9 c0 -11 -19 -15 -25 -6
-3 5 1 10 9 10 9 0 16 -2 16 -4z m-104 -24 c10 -9 31 -23 47 -29 15 -7 27 -17
27 -23 0 -5 9 -10 20 -10 11 0 20 -5 20 -11 0 -8 17 -10 50 -7 36 4 50 1 54
-9 3 -8 -1 -16 -9 -18 -8 -3 -22 -7 -31 -10 -9 -3 -18 -14 -21 -25 -6 -21 -6
-21 -40 -25 -14 -1 -23 3 -23 11 0 10 -6 11 -25 4 -30 -11 -85 16 -85 42 0 9
-4 19 -9 22 -20 13 -22 106 -2 106 4 0 16 -8 27 -18z m724 -13 c0 -6 -13 -36
-30 -67 -46 -89 -186 -387 -203 -432 -3 -8 -6 9 -6 38 -1 60 -29 184 -44 193
-5 4 -24 3 -41 -2 -39 -11 -49 -11 -42 0 3 5 17 12 32 15 14 4 31 11 37 17 7
5 47 32 91 60 86 55 186 148 186 173 0 9 5 16 10 16 6 0 10 -5 10 -11z m-469
-126 c-12 -20 -14 -14 -5 12 4 9 9 14 11 11 3 -2 0 -13 -6 -23z m-201 -215 c0
-3 -34 11 -76 33 -41 21 -82 39 -90 39 -11 0 -14 15 -14 62 l0 62 90 -94 c49
-52 90 -98 90 -102z m110 -247 c1 -87 75 -295 117 -327 16 -12 21 -10 37 9
l19 22 -8 -25 c-4 -14 -11 -27 -14 -30 -4 -3 -12 -16 -19 -30 -6 -14 -25 -47
-42 -75 -16 -27 -33 -59 -39 -71 -5 -11 -41 -78 -80 -149 -39 -70 -71 -131
-71 -134 0 -3 -10 -17 -22 -31 -34 -38 -108 -147 -108 -159 0 -18 -7 -13 -77
54 l-67 65 16 33 c16 33 16 35 -8 53 l-25 19 12 130 c6 78 17 139 26 153 8 13
11 31 8 41 -12 37 36 261 56 261 3 0 19 -29 35 -65 41 -92 72 -96 95 -11 6 22
22 73 34 111 13 39 29 96 36 128 9 43 18 61 33 67 37 13 56 1 56 -39z m770
-89 c0 -5 -9 -19 -20 -32 -24 -28 -26 -19 -4 15 17 26 24 31 24 17z m-78 -122
c-16 -28 -32 -39 -32 -23 0 6 41 53 46 53 2 0 -5 -13 -14 -30z m-1045 -72 c-3
-8 -6 -5 -6 6 -1 11 2 17 5 13 3 -3 4 -12 1 -19z m-4 -48 c-3 -12 -8 -19 -11
-16 -5 6 5 36 12 36 2 0 2 -9 -1 -20z m969 -2 c-7 -7 -12 -8 -12 -2 0 6 3 14
7 17 3 4 9 5 12 2 2 -3 -1 -11 -7 -17z m-12 -28 c0 -5 -5 -10 -11 -10 -5 0 -7
5 -4 10 3 6 8 10 11 10 2 0 4 -4 4 -10z m-1036 -84 c-3 -21 -8 -35 -11 -32 -2
2 -1 20 3 40 3 21 8 35 11 32 2 -2 1 -20 -3 -40z m981 4 c-9 -16 -17 -30 -19
-30 -3 0 1 14 7 30 6 17 15 30 19 30 5 0 2 -13 -7 -30z m-31 -55 c-4 -8 -8
-15 -10 -15 -2 0 -4 7 -4 15 0 8 4 15 10 15 5 0 7 -7 4 -15z m-967 -62 c-3
-10 -5 -4 -5 12 0 17 2 24 5 18 2 -7 2 -21 0 -30z m-10 -95 c-3 -7 -5 -2 -5
12 0 14 2 19 5 13 2 -7 2 -19 0 -25z m1230 -60 c-3 -7 -5 -2 -5 12 0 14 2 19
5 13 2 -7 2 -19 0 -25z m-366 -65 c-8 -15 -10 -15 -11 -2 0 17 10 32 18 25 2
-3 -1 -13 -7 -23z m-886 -23 c-4 -12 -9 -19 -12 -17 -3 3 -2 15 2 27 4 12 9
19 12 17 3 -3 2 -15 -2 -27z m-8 -122 c-2 -18 -4 -6 -4 27 0 33 2 48 4 33 2
-15 2 -42 0 -60z m3 -228 c0 -5 -2 -10 -4 -10 -3 0 -8 5 -11 10 -3 6 -1 10 4
10 6 0 11 -4 11 -10z m294 -92 c-3 -4 -14 -8 -25 -8 -11 0 -18 4 -15 8 2 4 14
8 25 8 11 0 17 -4 15 -8z m-1077 -554 c-3 -3 -12 -4 -19 -1 -8 3 -5 6 6 6 11
1 17 -2 13 -5z m1051 -414 c-17 -26 -33 -31 -63 -20 -35 13 -31 20 8 13 23 -3
37 0 46 11 19 22 24 20 9 -4z m-608 -348 c39 -6 47 -12 66 -47 12 -22 25 -67
28 -100 l6 -60 -92 0 -93 0 3 -26 c2 -22 -4 -29 -30 -39 -32 -13 -85 -62 -120
-111 l-17 -24 -1 28 c0 15 -5 27 -11 27 -15 0 -41 -68 -34 -90 3 -10 2 -21 -3
-24 -5 -3 -19 29 -31 72 -13 42 -32 97 -44 122 -11 25 -21 50 -22 55 -1 6 -7
23 -13 39 -12 27 -11 32 11 51 25 24 195 120 224 128 27 7 123 6 173 -1z
m-424 -215 c8 3 14 0 14 -6 0 -14 -4 -14 -52 1 -24 7 -34 14 -26 19 6 4 20 1
31 -6 11 -7 26 -11 33 -8z m437 -14 c-7 -2 -19 -2 -25 0 -7 3 -2 5 12 5 14 0
19 -2 13 -5z m122 -33 c3 -5 1 -10 -4 -10 -6 0 -11 5 -11 10 0 6 2 10 4 10 3
0 8 -4 11 -10z m905 -10 c0 -5 -5 -10 -11 -10 -5 0 -7 5 -4 10 3 6 8 10 11 10
2 0 4 -4 4 -10z m-238 -178 c10 -31 56 -119 103 -196 85 -138 97 -166 71 -166
-7 0 -24 -9 -38 -19 -13 -11 -37 -21 -53 -23 -25 -3 -33 5 -71 61 -54 79 -57
83 -49 48 6 -21 3 -31 -11 -41 -10 -8 -24 -12 -31 -9 -7 3 -13 -1 -13 -9 0
-18 -36 -39 -55 -32 -9 4 -15 1 -15 -9 0 -31 -24 -36 -52 -12 -36 31 -35 35 5
35 32 0 64 17 102 54 17 16 14 16 -15 -3 -19 -12 -45 -27 -57 -33 -25 -12 -97
-2 -87 13 3 6 -4 21 -16 34 -12 12 -21 29 -20 36 5 34 -1 37 -37 18 -37 -19
-143 -27 -143 -11 1 18 19 34 33 29 9 -3 17 -1 20 6 2 7 24 12 55 12 45 0 52
3 52 20 0 11 10 27 21 35 12 8 27 21 35 28 7 6 15 12 19 12 3 0 22 12 41 27
26 20 38 23 46 15 22 -22 31 -12 10 11 -12 12 -18 27 -14 33 9 14 67 44 84 44
7 0 22 11 32 25 10 14 22 25 25 25 3 0 14 -26 23 -58z m86 -117 c-3 -3 -9 2
-12 12 -6 14 -5 15 5 6 7 -7 10 -15 7 -18z m122 -425 c0 -5 -2 -10 -4 -10 -3
0 -8 5 -11 10 -3 6 -1 10 4 10 6 0 11 -4 11 -10z m-2630 -4 c0 -2 -7 -9 -15
-16 -13 -11 -14 -10 -9 4 5 14 24 23 24 12z m17 -52 c-3 -3 -12 -4 -19 -1 -8
3 -5 6 6 6 11 1 17 -2 13 -5z m-62 -24 c3 -5 -1 -10 -10 -10 -9 0 -13 5 -10
10 3 6 8 10 10 10 2 0 7 -4 10 -10z m2720 0 c3 -5 1 -10 -4 -10 -6 0 -11 5
-11 10 0 6 2 10 4 10 3 0 8 -4 11 -10z m-607 -68 c18 -12 4 -42 -20 -42 -10 0
-17 4 -13 9 3 5 1 12 -5 16 -5 3 -10 10 -10 16 0 11 30 12 48 1z m639 -84 c-3
-8 -6 -5 -6 6 -1 11 2 17 5 13 3 -3 4 -12 1 -19z m-687 -79 c0 -21 -7 -32 -24
-41 -33 -15 -56 -4 -56 27 0 21 5 25 31 25 27 0 30 3 23 22 -6 20 -5 21 10 9
9 -7 16 -26 16 -42z m-346 -12 c3 3 6 0 6 -8 0 -36 -45 -52 -55 -19 -9 28 2
42 24 30 10 -5 21 -6 25 -3z m167 -74 c-9 -20 -17 -24 -44 -21 -28 3 -32 7
-35 37 -3 33 -3 34 27 28 18 -4 33 -2 37 5 13 21 27 -23 15 -49z"/>
<path d="M3025 5840 c3 -5 8 -10 11 -10 2 0 4 5 4 10 0 6 -5 10 -11 10 -5 0
-7 -4 -4 -10z"/>
<path d="M2143 1554 c-24 -27 -30 -54 -13 -54 6 0 13 7 16 15 3 8 14 17 25 20
21 7 27 45 7 45 -7 0 -23 -12 -35 -26z"/>
<path d="M2926 1241 c-4 -5 3 -7 14 -4 23 6 26 13 6 13 -8 0 -17 -4 -20 -9z"/>
<path d="M2958 1153 c7 -3 16 -2 19 1 4 3 -2 6 -13 5 -11 0 -14 -3 -6 -6z"/>
</g>
</svg>
